name C:\Users\u0150099\Documents\master_thesis\3dpredictsim\Results\debug\Fal_s1_mtj_sc_cspx10_oy_MTPp_k1_d01_MTJp_nl_MG_exp_table_d01_PF_Natali2010_x5_ls146_ig21.mot
datacolumns 128
datarows 4
range 1.03151311 1.06245850
endheader
time	pelvis_tilt	pelvis_list	pelvis_rotation	pelvis_tx	pelvis_ty	pelvis_tz	hip_flexion_l	hip_adduction_l	hip_rotation_l	hip_flexion_r	hip_adduction_r	hip_rotation_r	knee_angle_l	knee_angle_r	ankle_angle_l	ankle_angle_r	subtalar_angle_l	subtalar_angle_r	mtj_angle_l	mtj_angle_r	mtp_angle_l	mtp_angle_r	lumbar_extension	lumbar_bending	lumbar_rotation	arm_flex_l	arm_add_l	arm_rot_l	arm_flex_r	arm_add_r	arm_rot_r	elbow_flex_l	elbow_flex_r	pro_sup_l	pro_sup_r	glut_med1_l/activation	glut_med2_l/activation	glut_med3_l/activation	glut_min1_l/activation	glut_min2_l/activation	glut_min3_l/activation	semimem_l/activation	semiten_l/activation	bifemlh_l/activation	bifemsh_l/activation	sar_l/activation	add_long_l/activation	add_brev_l/activation	add_mag1_l/activation	add_mag2_l/activation	add_mag3_l/activation	tfl_l/activation	pect_l/activation	grac_l/activation	glut_max1_l/activation	glut_max2_l/activation	glut_max3_l/activation	iliacus_l/activation	psoas_l/activation	quad_fem_l/activation	gem_l/activation	peri_l/activation	rect_fem_l/activation	vas_med_l/activation	vas_int_l/activation	vas_lat_l/activation	med_gas_l/activation	lat_gas_l/activation	soleus_l/activation	tib_post_l/activation	flex_dig_l/activation	flex_hal_l/activation	tib_ant_l/activation	per_brev_l/activation	per_long_l/activation	per_tert_l/activation	ext_dig_l/activation	ext_hal_l/activation	ercspn_l/activation	intobl_l/activation	extobl_l/activation	glut_med1_r/activation	glut_med2_r/activation	glut_med3_r/activation	glut_min1_r/activation	glut_min2_r/activation	glut_min3_r/activation	semimem_r/activation	semiten_r/activation	bifemlh_r/activation	bifemsh_r/activation	sar_r/activation	add_long_r/activation	add_brev_r/activation	add_mag1_r/activation	add_mag2_r/activation	add_mag3_r/activation	tfl_r/activation	pect_r/activation	grac_r/activation	glut_max1_r/activation	glut_max2_r/activation	glut_max3_r/activation	iliacus_r/activation	psoas_r/activation	quad_fem_r/activation	gem_r/activation	peri_r/activation	rect_fem_r/activation	vas_med_r/activation	vas_int_r/activation	vas_lat_r/activation	med_gas_r/activation	lat_gas_r/activation	soleus_r/activation	tib_post_r/activation	flex_dig_r/activation	flex_hal_r/activation	tib_ant_r/activation	per_brev_r/activation	per_long_r/activation	per_tert_r/activation	ext_dig_r/activation	ext_hal_r/activation	ercspn_r/activation	intobl_r/activation	extobl_r/activation	
          1.03151311	         -2.92928746	         -1.04449774	          6.50981497	          1.37191244	          0.89977976	         -0.00802818	        -15.09829416	          0.26117176	          2.81481452	         33.83284927	         -0.65551230	         -9.50589154	        -15.63593532	        -27.29747298	         10.93446623	          4.00189651	          8.03898157	          2.01799849	         -1.79517909	          0.56256781	         16.17568757	         -4.81416842	         -3.22730889	         -0.61076884	         -1.02042770	          5.20212404	        -14.03702519	         19.11637159	         -8.10737561	        -13.51658784	          6.28999165	         38.97691339	         24.48204137	         86.51662706	         86.51662706	          0.17887782	          0.05000092	          0.05000031	          0.34381312	          0.17599092	          0.07884935	          0.05000235	          0.05000039	          0.05000034	          0.05000051	          0.07576264	          0.05000020	          0.05000033	          0.05000050	          0.05000159	          0.05000164	          0.62493384	          0.05000110	          0.05000060	          0.05000642	          0.05000251	          0.05000181	          0.12952530	          0.42204494	          0.05000019	          0.05000070	          0.05000044	          0.41811258	          0.13125107	          0.13133304	          0.11298472	          0.63486690	          0.72649161	          0.23233105	          0.30688119	          0.54724162	          0.54862820	          0.05000003	          0.05000051	          0.07164381	          0.05000015	          0.05000004	          0.05000021	          0.05000004	          0.05000011	          0.05000009	          0.05000047	          0.05000077	          0.05000109	          0.05000113	          0.05000123	          0.05000146	          0.08460510	          0.07280893	          0.10974459	          0.09704753	          0.06988775	          0.13944290	          0.14827167	          0.14219416	          0.09863998	          0.05234043	          0.05000168	          0.06955670	          0.14759199	          0.05000161	          0.05000146	          0.05180011	          0.10115866	          0.12080683	          0.34811013	          0.06893431	          0.05000166	          0.05000052	          0.05000085	          0.05000074	          0.05000037	          0.08368390	          0.11052344	          0.05000005	          0.08047779	          0.06866846	          0.09253490	          0.15817134	          0.06527856	          0.12583911	          0.05000023	          0.61687625	          0.05000126	          0.05118406	          0.15462984	          0.16350600	
          1.04182824	         -2.92734447	         -1.19420884	          6.88135849	          1.38831171	          0.89892495	         -0.00773861	        -15.96510072	         -0.30664148	          2.66137204	         33.59423615	         -0.28157083	         -9.39559412	        -15.59553497	        -26.65597601	          9.74528709	          2.69524213	          8.81193668	          1.27264033	         -2.73948286	          1.03766749	         19.02607176	         -4.81506522	         -3.03198598	         -0.38522275	         -1.12856403	          4.98308209	        -13.97120035	         19.23510072	         -9.14305423	        -13.48382093	          5.82291777	         40.23875872	         24.37010491	         86.51662706	         86.51662706	          0.15321885	          0.05000024	          0.05000013	          0.29337650	          0.15017347	          0.06728242	          0.05000178	          0.05000026	          0.05000023	          0.05000090	          0.06465519	          0.05003090	          0.05000131	          0.05000099	          0.05000211	          0.05000082	          0.61460291	          0.05009934	          0.05000088	          0.05000105	          0.05000121	          0.05000120	          0.11052430	          0.44446373	          0.05000015	          0.05000052	          0.05000045	          0.35677622	          0.13375175	          0.13459461	          0.11641878	          0.57506109	          0.64360735	          0.19824842	          0.27879569	          0.54621869	          0.52783925	          0.05000002	          0.05000047	          0.06113470	          0.05000013	          0.05000003	          0.05000018	          0.05000006	          0.05000007	          0.05000005	          0.05000022	          0.05000025	          0.05000022	          0.05000160	          0.05000128	          0.05000047	          0.08047551	          0.08047495	          0.09374092	          0.08281107	          0.05963575	          0.13290252	          0.13929289	          0.16502621	          0.11194209	          0.05807635	          0.05000048	          0.05941540	          0.13732989	          0.05000033	          0.05000020	          0.05000034	          0.08631925	          0.10614271	          0.35680303	          0.05882498	          0.05000053	          0.05000042	          0.05000025	          0.05000033	          0.05000020	          0.08047523	          0.09431006	          0.05648807	          0.06867237	          0.05859618	          0.07896100	          0.26420018	          0.15113625	          0.11072028	          0.05859598	          0.67932063	          0.05000023	          0.05000000	          0.14446578	          0.15920675	
          1.05214337	         -2.92343474	         -1.34239561	          7.22797743	          1.40496969	          0.89798096	         -0.00741176	        -16.69617989	         -0.88155244	          2.48044769	         33.32976271	          0.11320782	         -9.24943256	        -15.78304401	        -26.46641129	          8.45099535	          1.90711414	          9.62341185	          0.46539409	         -3.76035736	          1.39376096	         22.12030465	         -5.08581685	         -2.83021480	         -0.14896300	         -1.23193300	          4.71046534	        -13.90128874	         19.30788910	        -10.16355563	        -13.46343123	          5.58267071	         41.44103254	         24.19914046	         86.51662706	         86.51662706	          0.13074238	          0.05000140	          0.05000027	          0.25033877	          0.12814341	          0.05741247	          0.05000536	          0.05000089	          0.05000081	          0.05000028	          0.05517106	          0.05000009	          0.05000015	          0.05000034	          0.05000135	          0.05010485	          0.59288530	          0.05000041	          0.05000040	          0.05003882	          0.05001436	          0.05000247	          0.09431059	          0.42189131	          0.05000014	          0.05000055	          0.05000021	          0.30443769	          0.13694383	          0.13917371	          0.12151944	          0.49070046	          0.54919112	          0.16916566	          0.23789686	          0.49300851	          0.45040687	          0.05000000	          0.05000084	          0.05641034	          0.05000008	          0.05000002	          0.05000011	          0.05000001	          0.05161056	          0.06063286	          0.05000067	          0.05005313	          0.05859616	          0.05000027	          0.05000047	          0.05859302	          0.06866995	          0.06866976	          0.07998937	          0.07066291	          0.05088747	          0.11340607	          0.11885926	          0.14081785	          0.09553690	          0.08581346	          0.05859587	          0.05070046	          0.11718426	          0.05859629	          0.05859665	          0.05864492	          0.07365641	          0.09057181	          0.33683228	          0.05019793	          0.05002475	          0.05000024	          0.07061283	          0.08915696	          0.08010836	          0.06866971	          0.08047496	          0.06754397	          0.05859826	          0.05000086	          0.06737774	          0.28993940	          0.14782578	          0.10283361	          0.05000016	          0.69623268	          0.09929005	          0.05000006	          0.12466803	          0.13585138	
          1.06245850	         -2.91747434	         -1.48892609	          7.55037436	          1.42185609	          0.89690825	         -0.00704225	        -17.29561526	         -1.46070843	          2.27096706	         33.03255726	          0.51823575	         -9.05972671	        -16.18167652	        -26.76962939	          7.03110508	          1.46381683	         10.44741109	         -0.45301517	         -4.84122657	          1.41629470	         25.43565222	         -5.85502807	         -2.62376026	          0.09308378	         -1.33150473	          4.38315990	        -13.84166755	         19.35418981	        -11.15963221	        -13.45215199	          5.53973933	         42.61069000	         23.96104068	         86.51662706	         86.51662706	          0.11156285	          0.05000038	          0.05000014	          0.21361453	          0.10934509	          0.05000135	          0.05003292	          0.05000077	          0.05000038	          0.05007667	          0.05005228	          0.08458177	          0.05000337	          0.05000062	          0.05000135	          0.05000082	          0.59400721	          0.05000704	          0.05000113	          0.05000053	          0.05000111	          0.05000116	          0.08047541	          0.36709969	          0.05000011	          0.05000039	          0.05000125	          0.25977714	          0.11685468	          0.11875746	          0.10369300	          0.41871540	          0.46862557	          0.14434930	          0.20299776	          0.42068533	          0.38433306	          0.05082328	          0.05000010	          0.05000006	          0.05000011	          0.05000002	          0.05000020	          0.05000001	          0.06866984	          0.06841392	          0.05840293	          0.05000043	          0.05000027	          0.05859602	          0.05859585	          0.05000070	          0.05859619	          0.05859607	          0.06825507	          0.06029681	          0.05000109	          0.17170686	          0.14741519	          0.19770383	          0.09649417	          0.09790969	          0.05000034	          0.07240356	          0.09999372	          0.05000044	          0.05000068	          0.05004188	          0.08047526	          0.08047524	          0.54533531	          0.13885118	          0.05000108	          0.05000013	          0.11684306	          0.13361977	          0.11693240	          0.05859596	          0.06866941	          0.05763537	          0.05000202	          0.05859621	          0.05749382	          0.55859202	          0.12613998	          0.08774808	          0.39427326	          0.78330272	          0.46630101	          0.05000001	          0.10637943	          0.11592218	
